<svg width="129" height="25" viewBox="0 0 129 25" fill="none" xmlns="http://www.w3.org/2000/svg">
<path d="M14.3977 0.727272H19.3182V15.8409C19.3182 17.5379 18.9129 19.0227 18.1023 20.2955C17.2992 21.5682 16.1742 22.5606 14.7273 23.2727C13.2803 23.9773 11.5947 24.3295 9.67045 24.3295C7.73864 24.3295 6.04924 23.9773 4.60227 23.2727C3.1553 22.5606 2.0303 21.5682 1.22727 20.2955C0.424242 19.0227 0.0227273 17.5379 0.0227273 15.8409V0.727272H4.94318V15.4205C4.94318 16.3068 5.13636 17.0947 5.52273 17.7841C5.91667 18.4735 6.4697 19.0152 7.18182 19.4091C7.89394 19.803 8.72348 20 9.67045 20C10.625 20 11.4545 19.803 12.1591 19.4091C12.8712 19.0152 13.4205 18.4735 13.8068 17.7841C14.2008 17.0947 14.3977 16.3068 14.3977 15.4205V0.727272ZM28.1165 13.9091V24H23.2756V6.54545H27.8892V9.625H28.0938C28.4801 8.60985 29.1278 7.80682 30.0369 7.21591C30.946 6.61742 32.0483 6.31818 33.3438 6.31818C34.5559 6.31818 35.6127 6.58333 36.5142 7.11364C37.4157 7.64394 38.1165 8.40151 38.6165 9.38636C39.1165 10.3636 39.3665 11.5303 39.3665 12.8864V24H34.5256V13.75C34.5331 12.6818 34.2604 11.8485 33.7074 11.25C33.1544 10.6439 32.393 10.3409 31.4233 10.3409C30.7718 10.3409 30.196 10.4811 29.696 10.7614C29.2036 11.0417 28.8172 11.4508 28.5369 11.9886C28.2642 12.5189 28.1241 13.1591 28.1165 13.9091ZM43.2727 24V0.727272H48.1136V9.47727H48.2614C48.4735 9.00758 48.7803 8.5303 49.1818 8.04545C49.5909 7.55303 50.1212 7.14394 50.7727 6.81818C51.4318 6.48485 52.25 6.31818 53.2273 6.31818C54.5 6.31818 55.6742 6.65152 56.75 7.31818C57.8258 7.97727 58.6856 8.97348 59.3295 10.3068C59.9735 11.6326 60.2955 13.2955 60.2955 15.2955C60.2955 17.2424 59.9811 18.8864 59.3523 20.2273C58.7311 21.5606 57.8826 22.572 56.8068 23.2614C55.7386 23.9432 54.5417 24.2841 53.2159 24.2841C52.2765 24.2841 51.4773 24.1288 50.8182 23.8182C50.1667 23.5076 49.6326 23.1174 49.2159 22.6477C48.7992 22.1705 48.4811 21.6894 48.2614 21.2045H48.0455V24H43.2727ZM48.0114 15.2727C48.0114 16.3106 48.1553 17.2159 48.4432 17.9886C48.7311 18.7614 49.1477 19.3636 49.6932 19.7955C50.2386 20.2197 50.9015 20.4318 51.6818 20.4318C52.4697 20.4318 53.1364 20.2159 53.6818 19.7841C54.2273 19.3447 54.6402 18.7386 54.9205 17.9659C55.2083 17.1856 55.3523 16.2879 55.3523 15.2727C55.3523 14.2652 55.2121 13.3788 54.9318 12.6136C54.6515 11.8485 54.2386 11.25 53.6932 10.8182C53.1477 10.3864 52.4773 10.1705 51.6818 10.1705C50.8939 10.1705 50.2273 10.3788 49.6818 10.7955C49.1439 11.2121 48.7311 11.803 48.4432 12.5682C48.1553 13.3333 48.0114 14.2348 48.0114 15.2727ZM74.7188 16.5682V6.54545H79.5597V24H74.9119V20.8295H74.7301C74.3362 21.8523 73.6809 22.6742 72.7642 23.2955C71.8551 23.9167 70.7453 24.2273 69.4347 24.2273C68.268 24.2273 67.2415 23.9621 66.3551 23.4318C65.4688 22.9015 64.7756 22.1477 64.2756 21.1705C63.7831 20.1932 63.5331 19.0227 63.5256 17.6591V6.54545H68.3665V16.7955C68.3741 17.8258 68.6506 18.6402 69.196 19.2386C69.7415 19.8371 70.4725 20.1364 71.3892 20.1364C71.9725 20.1364 72.518 20.0038 73.0256 19.7386C73.5331 19.4659 73.9422 19.0644 74.2528 18.5341C74.571 18.0038 74.7263 17.3485 74.7188 16.5682ZM88.2727 13.9091V24H83.4318V6.54545H88.0455V9.625H88.25C88.6364 8.60985 89.2841 7.80682 90.1932 7.21591C91.1023 6.61742 92.2045 6.31818 93.5 6.31818C94.7121 6.31818 95.7689 6.58333 96.6705 7.11364C97.572 7.64394 98.2727 8.40151 98.7727 9.38636C99.2727 10.3636 99.5227 11.5303 99.5227 12.8864V24H94.6818V13.75C94.6894 12.6818 94.4167 11.8485 93.8636 11.25C93.3106 10.6439 92.5492 10.3409 91.5795 10.3409C90.928 10.3409 90.3523 10.4811 89.8523 10.7614C89.3598 11.0417 88.9735 11.4508 88.6932 11.9886C88.4205 12.5189 88.2803 13.1591 88.2727 13.9091ZM109.77 24.2841C108.444 24.2841 107.243 23.9432 106.168 23.2614C105.099 22.572 104.251 21.5606 103.622 20.2273C103.001 18.8864 102.69 17.2424 102.69 15.2955C102.69 13.2955 103.012 11.6326 103.656 10.3068C104.3 8.97348 105.156 7.97727 106.224 7.31818C107.3 6.65152 108.478 6.31818 109.759 6.31818C110.736 6.31818 111.55 6.48485 112.202 6.81818C112.861 7.14394 113.391 7.55303 113.793 8.04545C114.202 8.5303 114.512 9.00758 114.724 9.47727H114.872V0.727272H119.702V24H114.929V21.2045H114.724C114.497 21.6894 114.175 22.1705 113.759 22.6477C113.349 23.1174 112.815 23.5076 112.156 23.8182C111.505 24.1288 110.709 24.2841 109.77 24.2841ZM111.304 20.4318C112.084 20.4318 112.743 20.2197 113.281 19.7955C113.827 19.3636 114.243 18.7614 114.531 17.9886C114.827 17.2159 114.974 16.3106 114.974 15.2727C114.974 14.2348 114.83 13.3333 114.543 12.5682C114.255 11.803 113.838 11.2121 113.293 10.7955C112.747 10.3788 112.084 10.1705 111.304 10.1705C110.509 10.1705 109.838 10.3864 109.293 10.8182C108.747 11.25 108.334 11.8485 108.054 12.6136C107.774 13.3788 107.634 14.2652 107.634 15.2727C107.634 16.2879 107.774 17.1856 108.054 17.9659C108.342 18.7386 108.755 19.3447 109.293 19.7841C109.838 20.2159 110.509 20.4318 111.304 20.4318ZM128.523 0.727272V24H123.682V0.727272H128.523Z" fill="black"/>
</svg>
